<mxfile host="app.diagrams.net" modified="2024-01-02T14:56:08.121Z" agent="Mozilla/5.0 (Windows NT 10.0; Win64; x64) AppleWebKit/537.36 (KHTML, like Gecko) Chrome/120.0.0.0 Safari/537.36" version="22.1.16" etag="HKRzAC0iIr_oDYJHRiHd" type="device">
  <diagram id="TxNfSndqSiS_toie08XE" name="第1頁">
    <mxGraphModel dx="1393" dy="574" grid="0" gridSize="10" guides="1" tooltips="1" connect="1" arrows="1" fold="1" page="0" pageScale="1" pageWidth="827" pageHeight="1169" math="0" shadow="0">
      <root>
        <mxCell id="0" />
        <mxCell id="1" parent="0" />
        <mxCell id="r5mZ6PrQuGXxaP9lCd9U-1" value="" style="rounded=0;whiteSpace=wrap;html=1;fontSize=16;rotation=90;" parent="1" vertex="1">
          <mxGeometry x="-32" y="68" width="109" height="28" as="geometry" />
        </mxCell>
        <mxCell id="r5mZ6PrQuGXxaP9lCd9U-2" value="首&lt;br&gt;頁" style="text;strokeColor=none;fillColor=none;html=1;align=center;verticalAlign=middle;whiteSpace=wrap;rounded=0;fontSize=16;" parent="1" vertex="1">
          <mxGeometry x="13" y="60.5" width="19" height="43" as="geometry" />
        </mxCell>
        <mxCell id="r5mZ6PrQuGXxaP9lCd9U-3" value="" style="rounded=0;whiteSpace=wrap;html=1;fontSize=16;rotation=90;" parent="1" vertex="1">
          <mxGeometry x="7.5" y="68" width="109" height="28" as="geometry" />
        </mxCell>
        <mxCell id="r5mZ6PrQuGXxaP9lCd9U-4" value="" style="rounded=0;whiteSpace=wrap;html=1;fontSize=16;rotation=90;" parent="1" vertex="1">
          <mxGeometry x="49.5" y="68" width="109" height="28" as="geometry" />
        </mxCell>
        <mxCell id="r5mZ6PrQuGXxaP9lCd9U-5" value="後&lt;br style=&quot;border-color: var(--border-color);&quot;&gt;台&lt;br style=&quot;border-color: var(--border-color);&quot;&gt;管&lt;br style=&quot;border-color: var(--border-color);&quot;&gt;理" style="rounded=0;whiteSpace=wrap;html=1;fontSize=16;rotation=0;" parent="1" vertex="1">
          <mxGeometry x="133" y="28" width="30" height="106" as="geometry" />
        </mxCell>
        <mxCell id="r5mZ6PrQuGXxaP9lCd9U-6" value="" style="rounded=0;whiteSpace=wrap;html=1;fontSize=16;rotation=90;" parent="1" vertex="1">
          <mxGeometry x="140.5" y="68" width="109" height="28" as="geometry" />
        </mxCell>
        <mxCell id="r5mZ6PrQuGXxaP9lCd9U-9" value="美&lt;br&gt;食&lt;br&gt;信&lt;br&gt;息" style="text;strokeColor=none;fillColor=none;html=1;align=center;verticalAlign=middle;whiteSpace=wrap;rounded=0;fontSize=16;" parent="1" vertex="1">
          <mxGeometry x="48.5" y="43.5" width="27" height="77" as="geometry" />
        </mxCell>
        <mxCell id="r5mZ6PrQuGXxaP9lCd9U-10" value="美&lt;br&gt;食&lt;br&gt;資&lt;br&gt;訊" style="text;strokeColor=none;fillColor=none;html=1;align=center;verticalAlign=middle;whiteSpace=wrap;rounded=0;fontSize=16;" parent="1" vertex="1">
          <mxGeometry x="92.5" y="43.5" width="23" height="77" as="geometry" />
        </mxCell>
        <mxCell id="r5mZ6PrQuGXxaP9lCd9U-12" value="購&lt;br&gt;物&lt;br&gt;車" style="text;strokeColor=none;fillColor=none;html=1;align=center;verticalAlign=middle;whiteSpace=wrap;rounded=0;fontSize=16;" parent="1" vertex="1">
          <mxGeometry x="179" y="53" width="32" height="58" as="geometry" />
        </mxCell>
        <mxCell id="r5mZ6PrQuGXxaP9lCd9U-13" value="" style="rounded=0;whiteSpace=wrap;html=1;fontSize=16;rotation=90;" parent="1" vertex="1">
          <mxGeometry x="184.5" y="68" width="109" height="28" as="geometry" />
        </mxCell>
        <mxCell id="r5mZ6PrQuGXxaP9lCd9U-14" value="個&lt;br&gt;人&lt;br&gt;中&lt;br&gt;心" style="text;strokeColor=none;fillColor=none;html=1;align=center;verticalAlign=middle;whiteSpace=wrap;rounded=0;fontSize=16;" parent="1" vertex="1">
          <mxGeometry x="226" y="44" width="26" height="76" as="geometry" />
        </mxCell>
        <mxCell id="r5mZ6PrQuGXxaP9lCd9U-15" value="前台" style="rounded=0;whiteSpace=wrap;html=1;fontSize=16;" parent="1" vertex="1">
          <mxGeometry x="93" y="179" width="67" height="29" as="geometry" />
        </mxCell>
        <mxCell id="r5mZ6PrQuGXxaP9lCd9U-16" value="" style="endArrow=none;html=1;rounded=0;fontSize=12;startSize=8;endSize=8;curved=1;entryX=1;entryY=0.5;entryDx=0;entryDy=0;" parent="1" target="r5mZ6PrQuGXxaP9lCd9U-1" edge="1">
          <mxGeometry width="50" height="50" relative="1" as="geometry">
            <mxPoint x="22.5" y="157.5" as="sourcePoint" />
            <mxPoint x="225.5" y="193.5" as="targetPoint" />
          </mxGeometry>
        </mxCell>
        <mxCell id="r5mZ6PrQuGXxaP9lCd9U-17" value="" style="endArrow=none;html=1;rounded=0;fontSize=12;startSize=8;endSize=8;curved=1;entryX=1;entryY=0.5;entryDx=0;entryDy=0;" parent="1" edge="1">
          <mxGeometry width="50" height="50" relative="1" as="geometry">
            <mxPoint x="61.5" y="157.5" as="sourcePoint" />
            <mxPoint x="61.5" y="136.5" as="targetPoint" />
          </mxGeometry>
        </mxCell>
        <mxCell id="r5mZ6PrQuGXxaP9lCd9U-18" value="" style="endArrow=none;html=1;rounded=0;fontSize=12;startSize=8;endSize=8;curved=1;entryX=1;entryY=0.5;entryDx=0;entryDy=0;" parent="1" edge="1">
          <mxGeometry width="50" height="50" relative="1" as="geometry">
            <mxPoint x="194.5" y="158.5" as="sourcePoint" />
            <mxPoint x="194.5" y="137.5" as="targetPoint" />
          </mxGeometry>
        </mxCell>
        <mxCell id="r5mZ6PrQuGXxaP9lCd9U-19" value="" style="endArrow=none;html=1;rounded=0;fontSize=12;startSize=8;endSize=8;curved=1;" parent="1" edge="1">
          <mxGeometry width="50" height="50" relative="1" as="geometry">
            <mxPoint x="146.5" y="156.5" as="sourcePoint" />
            <mxPoint x="147" y="136" as="targetPoint" />
          </mxGeometry>
        </mxCell>
        <mxCell id="r5mZ6PrQuGXxaP9lCd9U-20" value="" style="endArrow=none;html=1;rounded=0;fontSize=12;startSize=8;endSize=8;curved=1;entryX=1;entryY=0.5;entryDx=0;entryDy=0;" parent="1" edge="1">
          <mxGeometry width="50" height="50" relative="1" as="geometry">
            <mxPoint x="103.5" y="158.5" as="sourcePoint" />
            <mxPoint x="103.5" y="137.5" as="targetPoint" />
          </mxGeometry>
        </mxCell>
        <mxCell id="r5mZ6PrQuGXxaP9lCd9U-21" value="" style="endArrow=none;html=1;rounded=0;fontSize=12;startSize=8;endSize=8;curved=1;" parent="1" edge="1">
          <mxGeometry width="50" height="50" relative="1" as="geometry">
            <mxPoint x="238.5" y="158.5" as="sourcePoint" />
            <mxPoint x="238.5" y="137.5" as="targetPoint" />
          </mxGeometry>
        </mxCell>
        <mxCell id="r5mZ6PrQuGXxaP9lCd9U-22" value="" style="endArrow=none;html=1;rounded=0;fontSize=12;startSize=8;endSize=8;curved=1;" parent="1" edge="1">
          <mxGeometry width="50" height="50" relative="1" as="geometry">
            <mxPoint x="23.5" y="157.5" as="sourcePoint" />
            <mxPoint x="240.5" y="157.5" as="targetPoint" />
          </mxGeometry>
        </mxCell>
        <mxCell id="r5mZ6PrQuGXxaP9lCd9U-23" value="" style="endArrow=none;html=1;rounded=0;fontSize=12;startSize=8;endSize=8;curved=1;exitX=0.5;exitY=0;exitDx=0;exitDy=0;" parent="1" source="r5mZ6PrQuGXxaP9lCd9U-15" edge="1">
          <mxGeometry width="50" height="50" relative="1" as="geometry">
            <mxPoint x="175.5" y="243.5" as="sourcePoint" />
            <mxPoint x="125.5" y="157.5" as="targetPoint" />
          </mxGeometry>
        </mxCell>
        <mxCell id="r5mZ6PrQuGXxaP9lCd9U-24" value="外賣訂餐系統" style="rounded=0;whiteSpace=wrap;html=1;fontSize=16;" parent="1" vertex="1">
          <mxGeometry x="63.5" y="238" width="122" height="43" as="geometry" />
        </mxCell>
        <mxCell id="r5mZ6PrQuGXxaP9lCd9U-25" value="後台" style="rounded=0;whiteSpace=wrap;html=1;fontSize=16;" parent="1" vertex="1">
          <mxGeometry x="93" y="305" width="67" height="29" as="geometry" />
        </mxCell>
        <mxCell id="IJs_yhzA3QwW4vicy_v7-1" style="edgeStyle=orthogonalEdgeStyle;rounded=0;orthogonalLoop=1;jettySize=auto;html=1;exitX=0.5;exitY=0;exitDx=0;exitDy=0;entryX=0.5;entryY=0;entryDx=0;entryDy=0;endArrow=none;endFill=0;" edge="1" parent="1" source="r5mZ6PrQuGXxaP9lCd9U-26" target="r5mZ6PrQuGXxaP9lCd9U-50">
          <mxGeometry relative="1" as="geometry" />
        </mxCell>
        <mxCell id="r5mZ6PrQuGXxaP9lCd9U-26" value="用戶" style="rounded=0;whiteSpace=wrap;html=1;fontSize=16;" parent="1" vertex="1">
          <mxGeometry x="-153" y="384" width="67" height="29" as="geometry" />
        </mxCell>
        <mxCell id="r5mZ6PrQuGXxaP9lCd9U-27" value="" style="rounded=0;whiteSpace=wrap;html=1;fontSize=16;rotation=90;" parent="1" vertex="1">
          <mxGeometry x="-195" y="495.25" width="109" height="28" as="geometry" />
        </mxCell>
        <mxCell id="r5mZ6PrQuGXxaP9lCd9U-28" value="" style="rounded=0;whiteSpace=wrap;html=1;fontSize=16;rotation=90;" parent="1" vertex="1">
          <mxGeometry x="-156" y="495.25" width="109" height="28" as="geometry" />
        </mxCell>
        <mxCell id="r5mZ6PrQuGXxaP9lCd9U-29" value="系&lt;br&gt;統&lt;br&gt;首&lt;br&gt;頁" style="text;strokeColor=none;fillColor=none;html=1;align=center;verticalAlign=middle;whiteSpace=wrap;rounded=0;fontSize=16;" parent="1" vertex="1">
          <mxGeometry x="-156" y="466" width="31" height="86.5" as="geometry" />
        </mxCell>
        <mxCell id="r5mZ6PrQuGXxaP9lCd9U-30" value="個&lt;br&gt;人&lt;br&gt;中&lt;br&gt;心" style="text;strokeColor=none;fillColor=none;html=1;align=center;verticalAlign=middle;whiteSpace=wrap;rounded=0;fontSize=16;" parent="1" vertex="1">
          <mxGeometry x="-117" y="468.5" width="31" height="81" as="geometry" />
        </mxCell>
        <mxCell id="r5mZ6PrQuGXxaP9lCd9U-31" value="管理員" style="rounded=0;whiteSpace=wrap;html=1;fontSize=16;" parent="1" vertex="1">
          <mxGeometry x="92" y="379" width="67" height="29" as="geometry" />
        </mxCell>
        <mxCell id="r5mZ6PrQuGXxaP9lCd9U-32" value="" style="rounded=0;whiteSpace=wrap;html=1;fontSize=16;rotation=90;" parent="1" vertex="1">
          <mxGeometry x="216" y="495" width="109" height="28" as="geometry" />
        </mxCell>
        <mxCell id="r5mZ6PrQuGXxaP9lCd9U-33" value="" style="rounded=0;whiteSpace=wrap;html=1;fontSize=16;rotation=90;" parent="1" vertex="1">
          <mxGeometry x="175" y="495" width="109" height="28" as="geometry" />
        </mxCell>
        <mxCell id="r5mZ6PrQuGXxaP9lCd9U-34" value="" style="rounded=0;whiteSpace=wrap;html=1;fontSize=16;rotation=90;" parent="1" vertex="1">
          <mxGeometry x="133" y="495" width="109" height="28" as="geometry" />
        </mxCell>
        <mxCell id="r5mZ6PrQuGXxaP9lCd9U-35" value="" style="rounded=0;whiteSpace=wrap;html=1;fontSize=16;rotation=90;" parent="1" vertex="1">
          <mxGeometry x="92" y="495" width="109" height="28" as="geometry" />
        </mxCell>
        <mxCell id="r5mZ6PrQuGXxaP9lCd9U-36" value="" style="rounded=0;whiteSpace=wrap;html=1;fontSize=16;rotation=90;" parent="1" vertex="1">
          <mxGeometry x="51" y="495" width="109" height="28" as="geometry" />
        </mxCell>
        <mxCell id="r5mZ6PrQuGXxaP9lCd9U-37" value="" style="rounded=0;whiteSpace=wrap;html=1;fontSize=16;rotation=90;" parent="1" vertex="1">
          <mxGeometry x="12" y="495" width="109" height="28" as="geometry" />
        </mxCell>
        <mxCell id="r5mZ6PrQuGXxaP9lCd9U-38" value="" style="rounded=0;whiteSpace=wrap;html=1;fontSize=16;rotation=90;" parent="1" vertex="1">
          <mxGeometry x="-28" y="495" width="109" height="28" as="geometry" />
        </mxCell>
        <mxCell id="r5mZ6PrQuGXxaP9lCd9U-39" value="" style="rounded=0;whiteSpace=wrap;html=1;fontSize=16;rotation=90;" parent="1" vertex="1">
          <mxGeometry x="-66" y="495" width="109" height="28" as="geometry" />
        </mxCell>
        <mxCell id="r5mZ6PrQuGXxaP9lCd9U-42" value="系&lt;br&gt;統&lt;br&gt;首&lt;br&gt;頁" style="text;strokeColor=none;fillColor=none;html=1;align=center;verticalAlign=middle;whiteSpace=wrap;rounded=0;fontSize=16;" parent="1" vertex="1">
          <mxGeometry x="-21.5" y="470.75" width="20" height="77" as="geometry" />
        </mxCell>
        <mxCell id="r5mZ6PrQuGXxaP9lCd9U-43" value="個&lt;br&gt;人&lt;br&gt;中&lt;br&gt;心" style="text;strokeColor=none;fillColor=none;html=1;align=center;verticalAlign=middle;whiteSpace=wrap;rounded=0;fontSize=16;" parent="1" vertex="1">
          <mxGeometry x="15" y="467.75" width="23" height="83" as="geometry" />
        </mxCell>
        <mxCell id="r5mZ6PrQuGXxaP9lCd9U-44" value="用戶管理" style="text;strokeColor=none;fillColor=none;html=1;align=center;verticalAlign=middle;whiteSpace=wrap;rounded=0;fontSize=16;" parent="1" vertex="1">
          <mxGeometry x="56" y="468.5" width="21" height="83" as="geometry" />
        </mxCell>
        <mxCell id="r5mZ6PrQuGXxaP9lCd9U-45" value="商&lt;br&gt;家&lt;br&gt;管&lt;br&gt;理" style="text;strokeColor=none;fillColor=none;html=1;align=center;verticalAlign=middle;whiteSpace=wrap;rounded=0;fontSize=16;" parent="1" vertex="1">
          <mxGeometry x="94" y="472.5" width="22" height="75" as="geometry" />
        </mxCell>
        <mxCell id="r5mZ6PrQuGXxaP9lCd9U-46" value="商&lt;br&gt;品&lt;br&gt;分&lt;br&gt;類&lt;br&gt;管&lt;br&gt;理" style="text;strokeColor=none;fillColor=none;html=1;align=center;verticalAlign=middle;whiteSpace=wrap;rounded=0;fontSize=16;" parent="1" vertex="1">
          <mxGeometry x="135" y="452.75" width="23" height="113" as="geometry" />
        </mxCell>
        <mxCell id="r5mZ6PrQuGXxaP9lCd9U-47" value="美&lt;br&gt;食&lt;br&gt;信&lt;br&gt;息&lt;br&gt;管&lt;br&gt;理" style="text;strokeColor=none;fillColor=none;html=1;align=center;verticalAlign=middle;whiteSpace=wrap;rounded=0;fontSize=16;" parent="1" vertex="1">
          <mxGeometry x="174" y="454.75" width="27" height="111" as="geometry" />
        </mxCell>
        <mxCell id="r5mZ6PrQuGXxaP9lCd9U-48" value="系&lt;br&gt;統&lt;br&gt;管&lt;br&gt;理" style="text;strokeColor=none;fillColor=none;html=1;align=center;verticalAlign=middle;whiteSpace=wrap;rounded=0;fontSize=16;" parent="1" vertex="1">
          <mxGeometry x="214" y="467.75" width="31" height="81" as="geometry" />
        </mxCell>
        <mxCell id="r5mZ6PrQuGXxaP9lCd9U-49" value="定&lt;br&gt;餐&lt;br&gt;管&lt;br&gt;理" style="text;strokeColor=none;fillColor=none;html=1;align=center;verticalAlign=middle;whiteSpace=wrap;rounded=0;fontSize=16;" parent="1" vertex="1">
          <mxGeometry x="258.25" y="473.75" width="24.5" height="71" as="geometry" />
        </mxCell>
        <mxCell id="IJs_yhzA3QwW4vicy_v7-2" style="edgeStyle=orthogonalEdgeStyle;rounded=0;orthogonalLoop=1;jettySize=auto;html=1;exitX=0.5;exitY=1;exitDx=0;exitDy=0;endArrow=none;endFill=0;" edge="1" parent="1" source="r5mZ6PrQuGXxaP9lCd9U-50">
          <mxGeometry relative="1" as="geometry">
            <mxPoint x="458.25" y="436" as="targetPoint" />
          </mxGeometry>
        </mxCell>
        <mxCell id="r5mZ6PrQuGXxaP9lCd9U-50" value="商家" style="rounded=0;whiteSpace=wrap;html=1;fontSize=16;" parent="1" vertex="1">
          <mxGeometry x="424.5" y="384" width="67" height="29" as="geometry" />
        </mxCell>
        <mxCell id="r5mZ6PrQuGXxaP9lCd9U-51" value="" style="rounded=0;whiteSpace=wrap;html=1;fontSize=16;rotation=90;" parent="1" vertex="1">
          <mxGeometry x="344" y="494.25" width="109" height="28" as="geometry" />
        </mxCell>
        <mxCell id="r5mZ6PrQuGXxaP9lCd9U-52" value="" style="rounded=0;whiteSpace=wrap;html=1;fontSize=16;rotation=90;" parent="1" vertex="1">
          <mxGeometry x="385" y="495" width="109" height="28" as="geometry" />
        </mxCell>
        <mxCell id="r5mZ6PrQuGXxaP9lCd9U-53" value="" style="rounded=0;whiteSpace=wrap;html=1;fontSize=16;rotation=90;" parent="1" vertex="1">
          <mxGeometry x="427" y="495.25" width="109" height="28" as="geometry" />
        </mxCell>
        <mxCell id="r5mZ6PrQuGXxaP9lCd9U-54" value="" style="rounded=0;whiteSpace=wrap;html=1;fontSize=16;rotation=90;" parent="1" vertex="1">
          <mxGeometry x="469" y="494.25" width="109" height="28" as="geometry" />
        </mxCell>
        <mxCell id="r5mZ6PrQuGXxaP9lCd9U-55" value="系&lt;br&gt;統&lt;br&gt;首&lt;br&gt;頁" style="text;strokeColor=none;fillColor=none;html=1;align=center;verticalAlign=middle;whiteSpace=wrap;rounded=0;fontSize=16;" parent="1" vertex="1">
          <mxGeometry x="387.5" y="468.75" width="22" height="81" as="geometry" />
        </mxCell>
        <mxCell id="r5mZ6PrQuGXxaP9lCd9U-56" value="個&lt;br&gt;人&lt;br&gt;中&lt;br&gt;心" style="text;strokeColor=none;fillColor=none;html=1;align=center;verticalAlign=middle;whiteSpace=wrap;rounded=0;fontSize=16;" parent="1" vertex="1">
          <mxGeometry x="428" y="470.75" width="23" height="77" as="geometry" />
        </mxCell>
        <mxCell id="r5mZ6PrQuGXxaP9lCd9U-57" value="美&lt;br&gt;食&lt;br&gt;信&lt;br&gt;息&lt;br&gt;管&lt;br&gt;理" style="text;strokeColor=none;fillColor=none;html=1;align=center;verticalAlign=middle;whiteSpace=wrap;rounded=0;fontSize=16;" parent="1" vertex="1">
          <mxGeometry x="471.5" y="453.75" width="20" height="111" as="geometry" />
        </mxCell>
        <mxCell id="r5mZ6PrQuGXxaP9lCd9U-58" value="訂&lt;br&gt;餐&lt;br&gt;管&lt;br&gt;理" style="text;strokeColor=none;fillColor=none;html=1;align=center;verticalAlign=middle;whiteSpace=wrap;rounded=0;fontSize=16;" parent="1" vertex="1">
          <mxGeometry x="508.5" y="471.75" width="30" height="75" as="geometry" />
        </mxCell>
        <mxCell id="r5mZ6PrQuGXxaP9lCd9U-59" value="" style="endArrow=none;html=1;rounded=0;fontSize=12;startSize=8;endSize=8;curved=1;" parent="1" edge="1">
          <mxGeometry width="50" height="50" relative="1" as="geometry">
            <mxPoint x="146" y="452.75" as="sourcePoint" />
            <mxPoint x="146" y="431.75" as="targetPoint" />
          </mxGeometry>
        </mxCell>
        <mxCell id="r5mZ6PrQuGXxaP9lCd9U-60" value="" style="endArrow=none;html=1;rounded=0;fontSize=12;startSize=8;endSize=8;curved=1;" parent="1" edge="1">
          <mxGeometry width="50" height="50" relative="1" as="geometry">
            <mxPoint x="270" y="453.75" as="sourcePoint" />
            <mxPoint x="270" y="432.75" as="targetPoint" />
          </mxGeometry>
        </mxCell>
        <mxCell id="r5mZ6PrQuGXxaP9lCd9U-61" value="" style="endArrow=none;html=1;rounded=0;fontSize=12;startSize=8;endSize=8;curved=1;" parent="1" edge="1">
          <mxGeometry width="50" height="50" relative="1" as="geometry">
            <mxPoint x="105" y="454.75" as="sourcePoint" />
            <mxPoint x="105" y="433.75" as="targetPoint" />
          </mxGeometry>
        </mxCell>
        <mxCell id="r5mZ6PrQuGXxaP9lCd9U-62" value="" style="endArrow=none;html=1;rounded=0;fontSize=12;startSize=8;endSize=8;curved=1;" parent="1" edge="1">
          <mxGeometry width="50" height="50" relative="1" as="geometry">
            <mxPoint x="66" y="453.75" as="sourcePoint" />
            <mxPoint x="66" y="432.75" as="targetPoint" />
          </mxGeometry>
        </mxCell>
        <mxCell id="r5mZ6PrQuGXxaP9lCd9U-63" value="" style="endArrow=none;html=1;rounded=0;fontSize=12;startSize=8;endSize=8;curved=1;" parent="1" edge="1">
          <mxGeometry width="50" height="50" relative="1" as="geometry">
            <mxPoint x="187" y="453.75" as="sourcePoint" />
            <mxPoint x="187" y="432.75" as="targetPoint" />
          </mxGeometry>
        </mxCell>
        <mxCell id="r5mZ6PrQuGXxaP9lCd9U-64" value="" style="endArrow=none;html=1;rounded=0;fontSize=12;startSize=8;endSize=8;curved=1;" parent="1" edge="1">
          <mxGeometry width="50" height="50" relative="1" as="geometry">
            <mxPoint x="229" y="454.75" as="sourcePoint" />
            <mxPoint x="229" y="433.75" as="targetPoint" />
          </mxGeometry>
        </mxCell>
        <mxCell id="r5mZ6PrQuGXxaP9lCd9U-65" value="" style="endArrow=none;html=1;rounded=0;fontSize=12;startSize=8;endSize=8;curved=1;" parent="1" edge="1">
          <mxGeometry width="50" height="50" relative="1" as="geometry">
            <mxPoint x="26" y="454.75" as="sourcePoint" />
            <mxPoint x="26" y="433.75" as="targetPoint" />
          </mxGeometry>
        </mxCell>
        <mxCell id="r5mZ6PrQuGXxaP9lCd9U-66" value="" style="endArrow=none;html=1;rounded=0;fontSize=12;startSize=8;endSize=8;curved=1;" parent="1" edge="1">
          <mxGeometry width="50" height="50" relative="1" as="geometry">
            <mxPoint x="-12" y="454.75" as="sourcePoint" />
            <mxPoint x="-12" y="434" as="targetPoint" />
          </mxGeometry>
        </mxCell>
        <mxCell id="r5mZ6PrQuGXxaP9lCd9U-68" value="" style="endArrow=none;html=1;rounded=0;fontSize=12;startSize=8;endSize=8;curved=1;" parent="1" edge="1">
          <mxGeometry width="50" height="50" relative="1" as="geometry">
            <mxPoint x="-141" y="453.75" as="sourcePoint" />
            <mxPoint x="-141" y="433" as="targetPoint" />
          </mxGeometry>
        </mxCell>
        <mxCell id="r5mZ6PrQuGXxaP9lCd9U-69" value="" style="endArrow=none;html=1;rounded=0;fontSize=12;startSize=8;endSize=8;curved=1;" parent="1" edge="1">
          <mxGeometry width="50" height="50" relative="1" as="geometry">
            <mxPoint x="-102" y="454.75" as="sourcePoint" />
            <mxPoint x="-102" y="434" as="targetPoint" />
          </mxGeometry>
        </mxCell>
        <mxCell id="r5mZ6PrQuGXxaP9lCd9U-71" value="" style="endArrow=none;html=1;rounded=0;fontSize=12;startSize=8;endSize=8;curved=1;" parent="1" edge="1">
          <mxGeometry width="50" height="50" relative="1" as="geometry">
            <mxPoint x="398" y="454.75" as="sourcePoint" />
            <mxPoint x="398" y="433.75" as="targetPoint" />
          </mxGeometry>
        </mxCell>
        <mxCell id="r5mZ6PrQuGXxaP9lCd9U-72" value="" style="endArrow=none;html=1;rounded=0;fontSize=12;startSize=8;endSize=8;curved=1;" parent="1" edge="1">
          <mxGeometry width="50" height="50" relative="1" as="geometry">
            <mxPoint x="439" y="454.75" as="sourcePoint" />
            <mxPoint x="439" y="433.75" as="targetPoint" />
          </mxGeometry>
        </mxCell>
        <mxCell id="r5mZ6PrQuGXxaP9lCd9U-73" value="" style="endArrow=none;html=1;rounded=0;fontSize=12;startSize=8;endSize=8;curved=1;" parent="1" edge="1">
          <mxGeometry width="50" height="50" relative="1" as="geometry">
            <mxPoint x="481" y="454.75" as="sourcePoint" />
            <mxPoint x="481" y="433.75" as="targetPoint" />
          </mxGeometry>
        </mxCell>
        <mxCell id="r5mZ6PrQuGXxaP9lCd9U-74" value="" style="endArrow=none;html=1;rounded=0;fontSize=12;startSize=8;endSize=8;curved=1;" parent="1" edge="1">
          <mxGeometry width="50" height="50" relative="1" as="geometry">
            <mxPoint x="523" y="454.75" as="sourcePoint" />
            <mxPoint x="523" y="433.75" as="targetPoint" />
          </mxGeometry>
        </mxCell>
        <mxCell id="r5mZ6PrQuGXxaP9lCd9U-75" value="" style="endArrow=none;html=1;rounded=0;fontSize=12;startSize=8;endSize=8;curved=1;" parent="1" edge="1">
          <mxGeometry width="50" height="50" relative="1" as="geometry">
            <mxPoint x="397" y="435" as="sourcePoint" />
            <mxPoint x="522" y="435" as="targetPoint" />
          </mxGeometry>
        </mxCell>
        <mxCell id="r5mZ6PrQuGXxaP9lCd9U-77" style="edgeStyle=none;curved=1;rounded=0;orthogonalLoop=1;jettySize=auto;html=1;entryX=0.5;entryY=1;entryDx=0;entryDy=0;fontSize=12;startSize=8;endSize=8;" parent="1" source="r5mZ6PrQuGXxaP9lCd9U-50" target="r5mZ6PrQuGXxaP9lCd9U-50" edge="1">
          <mxGeometry relative="1" as="geometry" />
        </mxCell>
        <mxCell id="r5mZ6PrQuGXxaP9lCd9U-78" value="" style="endArrow=none;html=1;rounded=0;fontSize=12;startSize=8;endSize=8;curved=1;" parent="1" edge="1">
          <mxGeometry width="50" height="50" relative="1" as="geometry">
            <mxPoint x="-11" y="435" as="sourcePoint" />
            <mxPoint x="271" y="435" as="targetPoint" />
          </mxGeometry>
        </mxCell>
        <mxCell id="r5mZ6PrQuGXxaP9lCd9U-79" value="" style="endArrow=none;html=1;rounded=0;fontSize=12;startSize=8;endSize=8;curved=1;entryX=0.5;entryY=1;entryDx=0;entryDy=0;" parent="1" target="r5mZ6PrQuGXxaP9lCd9U-31" edge="1">
          <mxGeometry width="50" height="50" relative="1" as="geometry">
            <mxPoint x="127" y="436" as="sourcePoint" />
            <mxPoint x="241" y="429" as="targetPoint" />
          </mxGeometry>
        </mxCell>
        <mxCell id="r5mZ6PrQuGXxaP9lCd9U-83" value="" style="endArrow=none;html=1;rounded=0;fontSize=12;startSize=8;endSize=8;curved=1;" parent="1" edge="1">
          <mxGeometry width="50" height="50" relative="1" as="geometry">
            <mxPoint x="-142" y="435" as="sourcePoint" />
            <mxPoint x="-101" y="435" as="targetPoint" />
          </mxGeometry>
        </mxCell>
        <mxCell id="r5mZ6PrQuGXxaP9lCd9U-84" value="" style="endArrow=none;html=1;rounded=0;fontSize=12;startSize=8;endSize=8;curved=1;entryX=0.5;entryY=1;entryDx=0;entryDy=0;" parent="1" target="r5mZ6PrQuGXxaP9lCd9U-26" edge="1">
          <mxGeometry width="50" height="50" relative="1" as="geometry">
            <mxPoint x="-119" y="436" as="sourcePoint" />
            <mxPoint x="74" y="429" as="targetPoint" />
          </mxGeometry>
        </mxCell>
        <mxCell id="r5mZ6PrQuGXxaP9lCd9U-86" value="" style="endArrow=none;html=1;rounded=0;fontSize=12;startSize=8;endSize=8;curved=1;entryX=0.5;entryY=1;entryDx=0;entryDy=0;exitX=0.5;exitY=0;exitDx=0;exitDy=0;" parent="1" source="r5mZ6PrQuGXxaP9lCd9U-31" target="r5mZ6PrQuGXxaP9lCd9U-25" edge="1">
          <mxGeometry width="50" height="50" relative="1" as="geometry">
            <mxPoint x="229" y="479" as="sourcePoint" />
            <mxPoint x="279" y="429" as="targetPoint" />
          </mxGeometry>
        </mxCell>
      </root>
    </mxGraphModel>
  </diagram>
</mxfile>
